<?xml version="1.0" standalone="no"?>
<!DOCTYPE svg PUBLIC "-//W3C//DTD SVG 20010904//EN"
 "http://www.w3.org/TR/2001/REC-SVG-20010904/DTD/svg10.dtd">
<svg version="1.0" xmlns="http://www.w3.org/2000/svg"
 width="437.000000pt" height="437.000000pt" viewBox="0 0 437.000000 437.000000"
 preserveAspectRatio="xMidYMid meet">
<metadata>
Created by potrace 1.11, written by Peter Selinger 2001-2013
</metadata>
<g transform="translate(0.000000,437.000000) scale(0.100000,-0.100000)"
fill="#000000" stroke="none">
<path d="M1540 2683 c0 -1114 2 -1324 13 -1308 8 11 67 106 132 210 65 105
160 255 210 335 50 80 105 167 121 193 16 27 36 61 45 75 29 47 599 956 609
972 9 13 454 725 512 818 l20 32 -831 0 -831 0 0 -1327z"/>
<path d="M1069 3933 c-1 -5 -1 -11 -1 -15 1 -3 -5 -12 -13 -18 -8 -7 -15 -18
-15 -25 0 -8 -4 -15 -9 -17 -5 -1 -11 -10 -13 -18 -2 -8 -5 -17 -8 -20 -17
-17 -50 -71 -40 -65 7 4 2 -7 -11 -26 -13 -19 -27 -36 -32 -37 -4 -2 -5 -7 -2
-12 2 -4 -4 -15 -15 -25 -11 -10 -20 -26 -20 -37 0 -10 -4 -18 -10 -18 -5 0
-10 -8 -10 -19 0 -10 -7 -24 -15 -31 -8 -7 -15 -19 -15 -27 0 -7 -7 -16 -15
-19 -8 -4 -15 -11 -15 -17 0 -6 -8 -19 -17 -30 -13 -15 -14 -19 -3 -13 9 5 8
2 -2 -7 -10 -8 -15 -17 -11 -20 3 -4 1 -7 -5 -7 -7 0 -12 -6 -12 -14 0 -7 -9
-25 -21 -40 -11 -14 -18 -26 -15 -26 3 0 -14 -30 -39 -66 -25 -36 -39 -62 -32
-59 6 4 4 0 -5 -8 -10 -8 -15 -17 -11 -20 3 -4 1 -7 -6 -7 -7 0 -9 -4 -6 -10
3 -5 1 -10 -5 -10 -6 0 -8 -4 -5 -10 3 -5 1 -10 -4 -10 -6 0 -11 -7 -11 -15 0
-8 -4 -15 -10 -15 -5 0 -10 -9 -10 -21 0 -13 -4 -18 -12 -13 -7 5 -9 2 -5 -9
3 -9 0 -18 -9 -21 -9 -3 -13 -10 -10 -14 3 -5 -3 -18 -14 -29 -10 -12 -16 -24
-13 -27 4 -3 2 -6 -4 -6 -5 0 -18 -18 -28 -40 -10 -22 -22 -40 -27 -40 -5 0
-8 -6 -6 -12 3 -7 -4 -21 -13 -32 -10 -10 -16 -22 -14 -26 3 -5 -2 -11 -11
-14 -9 -4 -14 -9 -11 -12 3 -4 -3 -15 -13 -26 -10 -12 -22 -33 -25 -49 -3 -15
-13 -30 -21 -33 -9 -3 -13 -10 -10 -15 3 -4 -3 -16 -14 -26 -11 -10 -20 -26
-20 -37 0 -10 -4 -18 -10 -18 -5 0 -9 -3 -8 -7 2 -5 -13 -30 -31 -57 -19 -27
-28 -46 -20 -42 10 6 10 4 -1 -6 -18 -16 -31 -37 -61 -98 -13 -25 -29 -51 -36
-58 -7 -7 -16 -24 -19 -38 -3 -13 -10 -21 -15 -18 -5 3 -9 -4 -9 -15 0 -12 -4
-21 -9 -21 -5 0 -12 -7 -15 -16 -3 -8 -2 -13 2 -10 4 3 14 -4 21 -16 10 -16
10 -18 0 -12 -7 4 -1 -8 14 -28 15 -19 27 -40 27 -46 0 -7 5 -12 10 -12 6 0
10 -4 10 -9 0 -11 82 -154 93 -162 5 -3 7 -9 5 -12 -1 -4 6 -17 17 -29 10 -13
19 -25 18 -28 -1 -12 21 -50 30 -50 6 0 7 -3 4 -7 -4 -3 5 -22 20 -41 15 -20
20 -31 12 -27 -8 5 1 -9 19 -32 17 -22 32 -45 32 -51 0 -5 7 -15 15 -22 8 -7
13 -16 10 -20 -3 -4 3 -18 13 -31 11 -13 32 -49 48 -79 16 -30 32 -57 35 -60
3 -3 16 -25 30 -50 13 -25 26 -47 29 -50 3 -3 10 -14 16 -25 46 -86 60 -111
64 -115 3 -3 16 -25 29 -50 14 -25 51 -89 83 -142 32 -53 58 -102 58 -108 0
-5 4 -10 10 -10 5 0 12 -11 16 -25 3 -14 10 -25 15 -25 5 0 8 -3 7 -7 -1 -5 9
-26 23 -48 15 -22 29 -50 33 -62 4 -13 12 -23 17 -23 5 0 9 -6 9 -14 0 -7 7
-19 15 -26 8 -7 15 -21 15 -31 0 -10 6 -22 13 -26 7 -4 21 -26 32 -48 11 -21
29 -53 40 -70 l20 -31 0 1753 c0 1396 -3 1753 -12 1753 -7 0 -14 -3 -14 -7z"/>
<path d="M3370 3549 c-25 -39 -45 -75 -45 -81 0 -5 -11 -21 -25 -35 -14 -15
-18 -23 -10 -18 8 5 -1 -11 -20 -35 -19 -24 -28 -41 -20 -36 8 4 6 0 -4 -8
-11 -9 -16 -16 -10 -16 5 0 1 -5 -8 -11 -10 -5 -18 -16 -18 -23 0 -7 -9 -25
-21 -40 -11 -14 -18 -26 -14 -26 4 0 -3 -12 -14 -26 -12 -15 -21 -33 -21 -41
0 -8 -4 -11 -10 -8 -9 6 -14 -8 -11 -27 0 -5 -4 -8 -11 -8 -6 0 -9 -3 -5 -6 3
-4 1 -12 -6 -20 -29 -32 -37 -44 -32 -44 3 0 -8 -20 -25 -45 -17 -25 -27 -45
-23 -45 4 0 3 -4 -2 -8 -15 -11 -66 -92 -58 -92 4 0 -2 -7 -13 -15 -10 -8 -16
-15 -12 -15 4 0 -9 -24 -28 -52 -19 -29 -34 -59 -34 -66 0 -7 -4 -10 -10 -7
-5 3 -10 1 -10 -6 0 -7 -8 -21 -17 -32 -13 -15 -14 -18 -3 -12 8 4 4 -4 -9
-18 -14 -15 -20 -27 -15 -27 5 0 5 -4 -1 -8 -20 -14 -50 -56 -35 -47 8 4 5 -3
-8 -17 -12 -13 -19 -27 -16 -31 4 -4 -1 -9 -10 -13 -9 -3 -16 -12 -16 -20 0
-8 -5 -14 -12 -14 -6 0 -8 -3 -5 -7 4 -3 0 -15 -10 -25 -9 -10 -12 -18 -7 -18
5 0 4 -4 -1 -8 -15 -10 -50 -66 -47 -74 1 -5 -3 -8 -10 -8 -6 0 -9 -3 -5 -6 3
-4 1 -12 -6 -20 -29 -33 -37 -44 -31 -44 3 0 -5 -15 -18 -32 -14 -18 -28 -43
-32 -55 -4 -13 -12 -23 -17 -23 -6 0 -7 -5 -4 -10 3 -6 -1 -13 -10 -16 -9 -4
-14 -13 -11 -20 3 -8 1 -14 -4 -14 -6 0 -10 -6 -10 -14 0 -8 -3 -16 -7 -18 -5
-1 -19 -18 -32 -37 -13 -19 -17 -31 -10 -27 8 4 6 1 -3 -7 -10 -8 -18 -19 -18
-24 0 -6 -7 -16 -15 -23 -8 -7 -13 -16 -10 -20 2 -4 -4 -15 -15 -25 -11 -10
-17 -21 -15 -25 3 -4 -2 -11 -11 -14 -8 -3 -12 -10 -9 -16 3 -5 1 -10 -5 -10
-6 0 -8 -5 -5 -10 3 -5 1 -10 -4 -10 -6 0 -17 -15 -25 -34 -8 -18 -19 -37 -25
-40 -6 -4 -9 -12 -6 -17 4 -5 1 -9 -5 -9 -6 0 -9 -4 -6 -9 3 -5 -1 -11 -9 -15
-8 -3 -15 -12 -15 -21 0 -8 -5 -15 -11 -15 -5 0 -7 -5 -4 -10 3 -6 1 -10 -6
-10 -7 0 -10 -3 -6 -6 3 -3 -3 -15 -13 -27 -11 -11 -17 -24 -14 -29 3 -4 0 -8
-6 -8 -6 0 -9 -4 -6 -9 3 -5 -1 -12 -10 -15 -8 -3 -12 -10 -9 -16 3 -5 1 -10
-5 -10 -6 0 -9 -4 -6 -9 3 -5 -1 -12 -10 -15 -8 -3 -13 -10 -10 -15 3 -5 -1
-12 -10 -15 -9 -4 -14 -9 -10 -13 3 -4 -4 -18 -16 -31 -13 -14 -16 -22 -8 -18
13 7 13 6 0 -6 -8 -7 -20 -22 -26 -33 -32 -59 -40 -71 -49 -77 -5 -4 -11 -12
-11 -18 -1 -5 -2 -14 -3 -18 0 -5 -12 -22 -26 -38 -14 -16 -25 -35 -25 -41 0
-7 -5 -13 -11 -13 -5 0 -8 -4 -5 -9 3 -5 -1 -14 -9 -21 -8 -7 -13 -16 -10 -20
3 -4 -2 -10 -10 -14 -8 -3 -15 -12 -15 -21 0 -8 -5 -15 -12 -15 -6 0 -8 -3 -5
-7 4 -3 -3 -18 -15 -31 -13 -14 -16 -22 -8 -18 9 5 8 2 -2 -7 -10 -8 -15 -17
-11 -20 3 -4 2 -7 -4 -7 -11 0 -49 -69 -45 -82 1 -5 -2 -8 -8 -8 -5 0 -10 -6
-10 -13 0 -8 -11 -24 -25 -37 -14 -13 -24 -29 -22 -34 2 -6 -7 -22 -20 -36
-13 -14 -26 -35 -29 -47 -4 -13 -11 -23 -17 -23 -6 0 -7 -3 -4 -7 4 -3 -1 -12
-11 -20 -10 -9 -11 -12 -2 -7 10 5 8 -1 -5 -17 -11 -13 -26 -34 -32 -47 -7
-12 -19 -32 -25 -44 -7 -13 -20 -29 -28 -36 -13 -12 -13 -13 0 -7 8 4 6 -1 -4
-9 -11 -9 -17 -16 -13 -16 4 0 -1 -9 -12 -21 -11 -12 -18 -26 -15 -33 7 -17
1697 -14 1718 4 9 7 14 16 11 20 -2 4 4 15 15 25 11 10 17 22 14 26 -3 5 0 9
7 9 7 0 10 3 6 6 -3 3 3 15 13 27 11 11 17 24 14 29 -3 4 2 11 10 14 9 3 13
10 10 15 -3 5 0 9 6 9 6 0 9 4 5 9 -3 5 -1 12 4 16 6 3 20 26 32 50 12 25 26
45 30 45 4 0 10 13 14 30 4 16 10 30 15 30 4 0 24 31 43 70 19 38 37 66 41 63
3 -4 7 -1 7 5 1 7 2 16 3 22 0 5 9 18 18 30 10 11 15 20 11 20 -3 0 1 8 9 18
8 9 22 31 30 47 28 56 53 99 66 113 6 7 12 20 12 28 0 8 5 14 10 14 6 0 10 5
10 10 0 6 16 35 35 65 19 30 32 55 28 55 -4 0 2 7 13 16 10 8 12 12 4 8 -13
-7 -13 -6 0 11 8 11 23 28 32 39 10 10 15 22 13 26 -3 4 2 13 10 20 8 7 12 16
9 21 -3 5 -1 9 4 9 5 0 23 27 39 60 17 32 33 57 35 55 3 -3 11 13 18 34 7 22
19 42 27 45 8 3 11 10 8 16 -3 5 -1 10 4 10 6 0 11 5 11 11 0 6 14 31 30 56
17 24 25 41 19 38 -6 -4 5 16 25 44 20 28 36 55 36 60 0 5 7 14 15 21 9 7 13
15 10 18 -3 3 2 14 12 24 9 10 13 18 9 18 -4 0 -2 6 4 13 23 27 58 86 54 90
-3 2 2 10 11 17 8 7 15 19 15 26 0 8 5 14 10 14 6 0 10 6 10 14 0 8 6 21 13
28 11 11 11 18 0 38 -7 14 -13 21 -13 16 0 -5 -14 18 -31 50 -17 32 -39 67
-48 78 -9 10 -15 21 -15 25 3 9 -48 94 -61 103 -5 4 -6 8 -2 8 5 0 -1 13 -12
29 -12 16 -21 32 -21 37 0 4 -12 23 -27 42 -15 20 -21 32 -13 27 7 -4 2 7 -11
26 -13 19 -27 36 -31 37 -5 2 -8 12 -8 23 0 10 -5 19 -11 19 -5 0 -8 4 -5 9 3
5 -1 12 -10 15 -9 4 -14 9 -10 13 3 3 -4 20 -17 37 -25 35 -51 87 -49 99 1 4
-2 7 -6 7 -4 0 -19 22 -33 50 -13 27 -28 50 -32 50 -5 0 -5 5 -2 10 3 6 1 10
-4 10 -6 0 -11 6 -11 14 0 7 -7 19 -15 26 -8 7 -12 16 -9 21 3 5 1 9 -4 9 -5
0 -15 14 -22 30 -7 17 -16 30 -21 30 -5 0 -8 3 -7 8 3 12 -35 82 -44 82 -5 0
-7 4 -4 9 3 4 -6 23 -19 41 -14 19 -25 39 -25 45 0 6 -9 21 -20 33 -12 12 -17
22 -13 22 4 0 1 5 -7 10 -8 5 -15 13 -15 17 0 4 -16 35 -35 68 -19 33 -42 72
-49 88 -8 15 -17 27 -20 27 -3 0 -26 -32 -51 -71z"/>
</g>
</svg>
